<svg width="920" height="260" viewBox="0 0 920 260" fill="none" xmlns="http://www.w3.org/2000/svg" aria-hidden="true">
  <g opacity="0.34" stroke="#8A6F55" stroke-width="1.4" stroke-linecap="round" stroke-linejoin="round">
    <path d="M52 211C80 161 125 125 183 101C231 81 276 80 319 98"/>
    <path d="M76 214H255M102 214V139M134 214V125M166 214V111M198 214V101M230 214V94"/>
    <path d="M91 139H244M83 125H253M73 111H263"/>
    <path d="M113 87C142 63 181 50 224 54C247 56 266 63 283 75"/>
    <path d="M392 202C414 171 443 151 481 142C528 131 569 146 604 184"/>
    <path d="M456 139C453 118 465 100 485 96C506 92 523 105 527 126"/>
    <path d="M469 102C461 91 462 75 474 65C488 53 511 58 521 74C529 88 524 104 513 114"/>
    <path d="M514 142C529 149 543 160 556 176"/>
    <path d="M442 152C427 160 415 173 405 190"/>
    <path d="M633 206C674 164 721 139 772 131C820 124 859 134 890 161"/>
    <path d="M742 130C738 111 747 91 765 84C787 75 810 90 812 115"/>
    <path d="M764 87C756 72 762 55 778 47C795 39 814 47 821 64C828 80 821 96 808 105"/>
    <path d="M686 184C727 166 774 161 828 170"/>
    <path d="M668 203C722 186 785 184 861 197"/>
  </g>
</svg>
